<mxfile host="app.diagrams.net" modified="2022-10-14T08:43:41.763Z" agent="5.0 (Windows NT 10.0; Win64; x64) AppleWebKit/537.36 (KHTML, like Gecko) Chrome/106.0.0.0 Safari/537.36" etag="doUXHO3Ksga_1y6CBt9_" version="20.4.0" type="github">
  <diagram id="3TNbn4hWmesWhZTW-a7X" name="第 1 页">
    <mxGraphModel dx="1422" dy="716" grid="1" gridSize="10" guides="1" tooltips="1" connect="1" arrows="1" fold="1" page="1" pageScale="1" pageWidth="827" pageHeight="1169" math="0" shadow="0">
      <root>
        <mxCell id="0" />
        <mxCell id="1" parent="0" />
        <mxCell id="12TVgymK4eSF7n50bUkY-2" value="星环大数据处理平台" style="swimlane;" vertex="1" parent="1">
          <mxGeometry x="401" y="300" width="350" height="200" as="geometry" />
        </mxCell>
        <mxCell id="12TVgymK4eSF7n50bUkY-4" value="JDBC" style="rounded=0;whiteSpace=wrap;html=1;" vertex="1" parent="12TVgymK4eSF7n50bUkY-2">
          <mxGeometry x="10" y="30" width="110" height="20" as="geometry" />
        </mxCell>
        <mxCell id="12TVgymK4eSF7n50bUkY-5" value="ODBC" style="rounded=0;whiteSpace=wrap;html=1;" vertex="1" parent="12TVgymK4eSF7n50bUkY-2">
          <mxGeometry x="130" y="30" width="100" height="20" as="geometry" />
        </mxCell>
        <mxCell id="12TVgymK4eSF7n50bUkY-6" value="CLI" style="rounded=0;whiteSpace=wrap;html=1;" vertex="1" parent="12TVgymK4eSF7n50bUkY-2">
          <mxGeometry x="240" y="30" width="100" height="20" as="geometry" />
        </mxCell>
        <mxCell id="12TVgymK4eSF7n50bUkY-7" value="Transwarp Quark 星环SQL编辑器" style="rounded=0;whiteSpace=wrap;html=1;" vertex="1" parent="12TVgymK4eSF7n50bUkY-2">
          <mxGeometry x="10" y="60" width="250" height="20" as="geometry" />
        </mxCell>
        <mxCell id="12TVgymK4eSF7n50bUkY-8" value="MetaStore&lt;br&gt;元数据服务" style="rounded=0;whiteSpace=wrap;html=1;" vertex="1" parent="12TVgymK4eSF7n50bUkY-2">
          <mxGeometry x="270" y="60" width="70" height="50" as="geometry" />
        </mxCell>
        <mxCell id="12TVgymK4eSF7n50bUkY-9" value="星环多模型数据库优化器" style="rounded=0;whiteSpace=wrap;html=1;" vertex="1" parent="12TVgymK4eSF7n50bUkY-2">
          <mxGeometry x="10" y="90" width="140" height="20" as="geometry" />
        </mxCell>
        <mxCell id="12TVgymK4eSF7n50bUkY-12" value="事务管理器" style="rounded=0;whiteSpace=wrap;html=1;" vertex="1" parent="12TVgymK4eSF7n50bUkY-2">
          <mxGeometry x="160" y="90" width="100" height="20" as="geometry" />
        </mxCell>
        <mxCell id="12TVgymK4eSF7n50bUkY-13" value="Transwarp Nucleon 星环分布式计算引擎" style="rounded=0;whiteSpace=wrap;html=1;" vertex="1" parent="12TVgymK4eSF7n50bUkY-2">
          <mxGeometry x="10" y="120" width="330" height="20" as="geometry" />
        </mxCell>
        <mxCell id="12TVgymK4eSF7n50bUkY-14" value="Hyperbase驱动层" style="rounded=0;whiteSpace=wrap;html=1;" vertex="1" parent="12TVgymK4eSF7n50bUkY-2">
          <mxGeometry x="10" y="150" width="70" height="30" as="geometry" />
        </mxCell>
        <mxCell id="12TVgymK4eSF7n50bUkY-16" value="Hyperbase&lt;br&gt;驱动层" style="rounded=0;whiteSpace=wrap;html=1;" vertex="1" parent="12TVgymK4eSF7n50bUkY-2">
          <mxGeometry x="90" y="150" width="70" height="30" as="geometry" />
        </mxCell>
        <mxCell id="12TVgymK4eSF7n50bUkY-17" value="HDFS&lt;br&gt;驱动层" style="rounded=0;whiteSpace=wrap;html=1;" vertex="1" parent="12TVgymK4eSF7n50bUkY-2">
          <mxGeometry x="170" y="150" width="70" height="30" as="geometry" />
        </mxCell>
        <mxCell id="12TVgymK4eSF7n50bUkY-18" value="Oracle/DB2/Mysql&lt;br&gt;驱动层" style="rounded=0;whiteSpace=wrap;html=1;" vertex="1" parent="12TVgymK4eSF7n50bUkY-2">
          <mxGeometry x="250" y="150" width="90" height="30" as="geometry" />
        </mxCell>
        <mxCell id="12TVgymK4eSF7n50bUkY-46" value="" style="endArrow=classic;html=1;rounded=0;" edge="1" parent="12TVgymK4eSF7n50bUkY-2">
          <mxGeometry width="50" height="50" relative="1" as="geometry">
            <mxPoint x="97" as="sourcePoint" />
            <mxPoint x="97" y="-20" as="targetPoint" />
          </mxGeometry>
        </mxCell>
        <mxCell id="12TVgymK4eSF7n50bUkY-33" style="edgeStyle=orthogonalEdgeStyle;rounded=0;orthogonalLoop=1;jettySize=auto;html=1;exitX=0.5;exitY=1;exitDx=0;exitDy=0;shape=link;" edge="1" parent="1" source="12TVgymK4eSF7n50bUkY-10">
          <mxGeometry relative="1" as="geometry">
            <mxPoint x="581" y="500" as="targetPoint" />
            <Array as="points">
              <mxPoint x="266" y="520" />
              <mxPoint x="581" y="520" />
            </Array>
          </mxGeometry>
        </mxCell>
        <mxCell id="12TVgymK4eSF7n50bUkY-34" value="数据加工" style="edgeLabel;html=1;align=center;verticalAlign=middle;resizable=0;points=[];" vertex="1" connectable="0" parent="12TVgymK4eSF7n50bUkY-33">
          <mxGeometry x="0.1437" y="1" relative="1" as="geometry">
            <mxPoint x="-29" as="offset" />
          </mxGeometry>
        </mxCell>
        <mxCell id="12TVgymK4eSF7n50bUkY-10" value="DIS数据采集平台" style="swimlane;" vertex="1" parent="1">
          <mxGeometry x="161" y="300" width="210" height="200" as="geometry">
            <mxRectangle x="161" y="300" width="130" height="30" as="alternateBounds" />
          </mxGeometry>
        </mxCell>
        <mxCell id="12TVgymK4eSF7n50bUkY-19" value="" style="rounded=0;whiteSpace=wrap;html=1;" vertex="1" parent="12TVgymK4eSF7n50bUkY-10">
          <mxGeometry x="100" y="30" width="90" height="130" as="geometry" />
        </mxCell>
        <mxCell id="12TVgymK4eSF7n50bUkY-20" value="数据集市层" style="rounded=0;whiteSpace=wrap;html=1;" vertex="1" parent="12TVgymK4eSF7n50bUkY-10">
          <mxGeometry x="110" y="60" width="70" height="20" as="geometry" />
        </mxCell>
        <mxCell id="12TVgymK4eSF7n50bUkY-23" value="数据中心" style="text;html=1;strokeColor=none;fillColor=none;align=center;verticalAlign=middle;whiteSpace=wrap;rounded=0;" vertex="1" parent="12TVgymK4eSF7n50bUkY-10">
          <mxGeometry x="115" y="30" width="60" height="30" as="geometry" />
        </mxCell>
        <mxCell id="12TVgymK4eSF7n50bUkY-24" value="数据汇总层" style="rounded=0;whiteSpace=wrap;html=1;" vertex="1" parent="12TVgymK4eSF7n50bUkY-10">
          <mxGeometry x="110" y="85" width="70" height="20" as="geometry" />
        </mxCell>
        <mxCell id="12TVgymK4eSF7n50bUkY-25" value="基础数据层" style="rounded=0;whiteSpace=wrap;html=1;" vertex="1" parent="12TVgymK4eSF7n50bUkY-10">
          <mxGeometry x="110" y="110" width="70" height="20" as="geometry" />
        </mxCell>
        <mxCell id="12TVgymK4eSF7n50bUkY-26" value="数据缓冲层" style="rounded=0;whiteSpace=wrap;html=1;" vertex="1" parent="12TVgymK4eSF7n50bUkY-10">
          <mxGeometry x="110" y="135" width="70" height="20" as="geometry" />
        </mxCell>
        <mxCell id="12TVgymK4eSF7n50bUkY-27" value="数据交换平台" style="rounded=0;whiteSpace=wrap;html=1;" vertex="1" parent="12TVgymK4eSF7n50bUkY-10">
          <mxGeometry x="40" y="30" width="20" height="160" as="geometry" />
        </mxCell>
        <mxCell id="12TVgymK4eSF7n50bUkY-35" value="数据质量管控" style="rounded=0;whiteSpace=wrap;html=1;" vertex="1" parent="12TVgymK4eSF7n50bUkY-10">
          <mxGeometry x="70" y="30" width="20" height="130" as="geometry" />
        </mxCell>
        <mxCell id="12TVgymK4eSF7n50bUkY-36" value="关系型数据库" style="rounded=0;whiteSpace=wrap;html=1;" vertex="1" parent="12TVgymK4eSF7n50bUkY-10">
          <mxGeometry x="70" y="170" width="120" height="20" as="geometry" />
        </mxCell>
        <mxCell id="12TVgymK4eSF7n50bUkY-37" value="负载均衡网关" style="rounded=0;whiteSpace=wrap;html=1;" vertex="1" parent="12TVgymK4eSF7n50bUkY-10">
          <mxGeometry x="10" y="30" width="20" height="160" as="geometry" />
        </mxCell>
        <mxCell id="12TVgymK4eSF7n50bUkY-45" style="edgeStyle=orthogonalEdgeStyle;shape=link;rounded=0;orthogonalLoop=1;jettySize=auto;html=1;exitX=1;exitY=0.5;exitDx=0;exitDy=0;entryX=1;entryY=0.5;entryDx=0;entryDy=0;" edge="1" parent="1" source="12TVgymK4eSF7n50bUkY-11" target="12TVgymK4eSF7n50bUkY-2">
          <mxGeometry relative="1" as="geometry" />
        </mxCell>
        <mxCell id="12TVgymK4eSF7n50bUkY-50" value="数据过滤" style="edgeLabel;html=1;align=center;verticalAlign=middle;resizable=0;points=[];" vertex="1" connectable="0" parent="12TVgymK4eSF7n50bUkY-45">
          <mxGeometry x="-0.2" relative="1" as="geometry">
            <mxPoint y="41" as="offset" />
          </mxGeometry>
        </mxCell>
        <mxCell id="12TVgymK4eSF7n50bUkY-11" value="北极星数据查询平台" style="swimlane;" vertex="1" parent="1">
          <mxGeometry x="161" y="30" width="590" height="250" as="geometry" />
        </mxCell>
        <mxCell id="12TVgymK4eSF7n50bUkY-55" value="" style="rounded=0;whiteSpace=wrap;html=1;" vertex="1" parent="12TVgymK4eSF7n50bUkY-11">
          <mxGeometry x="10" y="30" width="130" height="210" as="geometry" />
        </mxCell>
        <mxCell id="12TVgymK4eSF7n50bUkY-56" value="中小微企业管理" style="text;html=1;strokeColor=none;fillColor=none;align=center;verticalAlign=middle;whiteSpace=wrap;rounded=0;" vertex="1" parent="12TVgymK4eSF7n50bUkY-11">
          <mxGeometry x="27.5" y="30" width="95" height="30" as="geometry" />
        </mxCell>
        <mxCell id="12TVgymK4eSF7n50bUkY-57" value="新增企业" style="rounded=0;whiteSpace=wrap;html=1;" vertex="1" parent="12TVgymK4eSF7n50bUkY-11">
          <mxGeometry x="20" y="60" width="110" height="20" as="geometry" />
        </mxCell>
        <mxCell id="12TVgymK4eSF7n50bUkY-58" value="经营活跃企业" style="rounded=0;whiteSpace=wrap;html=1;" vertex="1" parent="12TVgymK4eSF7n50bUkY-11">
          <mxGeometry x="20" y="90" width="110" height="20" as="geometry" />
        </mxCell>
        <mxCell id="12TVgymK4eSF7n50bUkY-59" value="优质纳税企业" style="rounded=0;whiteSpace=wrap;html=1;" vertex="1" parent="12TVgymK4eSF7n50bUkY-11">
          <mxGeometry x="20" y="120" width="110" height="20" as="geometry" />
        </mxCell>
        <mxCell id="12TVgymK4eSF7n50bUkY-60" value="优质雇主企业" style="rounded=0;whiteSpace=wrap;html=1;" vertex="1" parent="12TVgymK4eSF7n50bUkY-11">
          <mxGeometry x="20" y="150" width="110" height="20" as="geometry" />
        </mxCell>
        <mxCell id="12TVgymK4eSF7n50bUkY-61" value="优质制造业企业" style="rounded=0;whiteSpace=wrap;html=1;" vertex="1" parent="12TVgymK4eSF7n50bUkY-11">
          <mxGeometry x="20" y="180" width="110" height="20" as="geometry" />
        </mxCell>
        <mxCell id="12TVgymK4eSF7n50bUkY-62" value="……" style="rounded=0;whiteSpace=wrap;html=1;" vertex="1" parent="12TVgymK4eSF7n50bUkY-11">
          <mxGeometry x="20" y="210" width="110" height="20" as="geometry" />
        </mxCell>
        <mxCell id="12TVgymK4eSF7n50bUkY-65" value="风险预警管理" style="text;html=1;strokeColor=none;fillColor=none;align=center;verticalAlign=middle;whiteSpace=wrap;rounded=0;" vertex="1" parent="12TVgymK4eSF7n50bUkY-11">
          <mxGeometry x="176.5" y="30" width="95" height="30" as="geometry" />
        </mxCell>
        <mxCell id="12TVgymK4eSF7n50bUkY-66" value="新增企业" style="rounded=0;whiteSpace=wrap;html=1;" vertex="1" parent="12TVgymK4eSF7n50bUkY-11">
          <mxGeometry x="169" y="60" width="110" height="20" as="geometry" />
        </mxCell>
        <mxCell id="12TVgymK4eSF7n50bUkY-67" value="经营活跃企业" style="rounded=0;whiteSpace=wrap;html=1;" vertex="1" parent="12TVgymK4eSF7n50bUkY-11">
          <mxGeometry x="169" y="90" width="110" height="20" as="geometry" />
        </mxCell>
        <mxCell id="12TVgymK4eSF7n50bUkY-68" value="优质纳税企业" style="rounded=0;whiteSpace=wrap;html=1;" vertex="1" parent="12TVgymK4eSF7n50bUkY-11">
          <mxGeometry x="169" y="120" width="110" height="20" as="geometry" />
        </mxCell>
        <mxCell id="12TVgymK4eSF7n50bUkY-69" value="优质雇主企业" style="rounded=0;whiteSpace=wrap;html=1;" vertex="1" parent="12TVgymK4eSF7n50bUkY-11">
          <mxGeometry x="169" y="150" width="110" height="20" as="geometry" />
        </mxCell>
        <mxCell id="12TVgymK4eSF7n50bUkY-88" value="" style="rounded=0;whiteSpace=wrap;html=1;" vertex="1" parent="12TVgymK4eSF7n50bUkY-11">
          <mxGeometry x="149" y="30" width="130" height="210" as="geometry" />
        </mxCell>
        <mxCell id="12TVgymK4eSF7n50bUkY-89" value="风险预警管理" style="text;html=1;strokeColor=none;fillColor=none;align=center;verticalAlign=middle;whiteSpace=wrap;rounded=0;" vertex="1" parent="12TVgymK4eSF7n50bUkY-11">
          <mxGeometry x="166.5" y="30" width="95" height="30" as="geometry" />
        </mxCell>
        <mxCell id="12TVgymK4eSF7n50bUkY-90" value="风险预警信息查询" style="rounded=0;whiteSpace=wrap;html=1;" vertex="1" parent="12TVgymK4eSF7n50bUkY-11">
          <mxGeometry x="159" y="60" width="110" height="30" as="geometry" />
        </mxCell>
        <mxCell id="12TVgymK4eSF7n50bUkY-91" value="风险预警名单管理" style="rounded=0;whiteSpace=wrap;html=1;" vertex="1" parent="12TVgymK4eSF7n50bUkY-11">
          <mxGeometry x="159" y="100" width="110" height="30" as="geometry" />
        </mxCell>
        <mxCell id="12TVgymK4eSF7n50bUkY-92" value="企业风险异动监测" style="rounded=0;whiteSpace=wrap;html=1;" vertex="1" parent="12TVgymK4eSF7n50bUkY-11">
          <mxGeometry x="159" y="145" width="110" height="30" as="geometry" />
        </mxCell>
        <mxCell id="12TVgymK4eSF7n50bUkY-93" value="贷后资金监测查询" style="rounded=0;whiteSpace=wrap;html=1;" vertex="1" parent="12TVgymK4eSF7n50bUkY-11">
          <mxGeometry x="159" y="190" width="110" height="30" as="geometry" />
        </mxCell>
        <mxCell id="12TVgymK4eSF7n50bUkY-96" value="" style="rounded=0;whiteSpace=wrap;html=1;" vertex="1" parent="12TVgymK4eSF7n50bUkY-11">
          <mxGeometry x="299" y="30" width="130" height="210" as="geometry" />
        </mxCell>
        <mxCell id="12TVgymK4eSF7n50bUkY-97" value="客户洞察" style="text;html=1;strokeColor=none;fillColor=none;align=center;verticalAlign=middle;whiteSpace=wrap;rounded=0;" vertex="1" parent="12TVgymK4eSF7n50bUkY-11">
          <mxGeometry x="316.5" y="35" width="95" height="30" as="geometry" />
        </mxCell>
        <mxCell id="12TVgymK4eSF7n50bUkY-98" value="企业贷前审核&lt;br&gt;信息查询" style="rounded=0;whiteSpace=wrap;html=1;" vertex="1" parent="12TVgymK4eSF7n50bUkY-11">
          <mxGeometry x="309" y="70" width="110" height="40" as="geometry" />
        </mxCell>
        <mxCell id="12TVgymK4eSF7n50bUkY-99" value="重点客户经营" style="rounded=0;whiteSpace=wrap;html=1;" vertex="1" parent="12TVgymK4eSF7n50bUkY-11">
          <mxGeometry x="309" y="130" width="110" height="40" as="geometry" />
        </mxCell>
        <mxCell id="12TVgymK4eSF7n50bUkY-120" value="" style="rounded=0;whiteSpace=wrap;html=1;" vertex="1" parent="12TVgymK4eSF7n50bUkY-11">
          <mxGeometry x="449" y="30" width="130" height="100" as="geometry" />
        </mxCell>
        <mxCell id="12TVgymK4eSF7n50bUkY-121" value="企业账户管理" style="text;html=1;strokeColor=none;fillColor=none;align=center;verticalAlign=middle;whiteSpace=wrap;rounded=0;" vertex="1" parent="12TVgymK4eSF7n50bUkY-11">
          <mxGeometry x="466.5" y="35" width="95" height="30" as="geometry" />
        </mxCell>
        <mxCell id="12TVgymK4eSF7n50bUkY-122" value="企业账户查询" style="rounded=0;whiteSpace=wrap;html=1;" vertex="1" parent="12TVgymK4eSF7n50bUkY-11">
          <mxGeometry x="459" y="80" width="110" height="30" as="geometry" />
        </mxCell>
        <mxCell id="12TVgymK4eSF7n50bUkY-124" value="" style="rounded=0;whiteSpace=wrap;html=1;" vertex="1" parent="12TVgymK4eSF7n50bUkY-11">
          <mxGeometry x="449" y="140" width="130" height="100" as="geometry" />
        </mxCell>
        <mxCell id="12TVgymK4eSF7n50bUkY-125" value="工商信息管理" style="text;html=1;strokeColor=none;fillColor=none;align=center;verticalAlign=middle;whiteSpace=wrap;rounded=0;" vertex="1" parent="12TVgymK4eSF7n50bUkY-11">
          <mxGeometry x="466.5" y="145" width="95" height="30" as="geometry" />
        </mxCell>
        <mxCell id="12TVgymK4eSF7n50bUkY-126" value="工商信息查询" style="rounded=0;whiteSpace=wrap;html=1;" vertex="1" parent="12TVgymK4eSF7n50bUkY-11">
          <mxGeometry x="459" y="190" width="110" height="30" as="geometry" />
        </mxCell>
        <mxCell id="12TVgymK4eSF7n50bUkY-38" value="业务人员" style="shape=umlActor;verticalLabelPosition=bottom;verticalAlign=top;html=1;outlineConnect=0;" vertex="1" parent="1">
          <mxGeometry x="67" y="370" width="30" height="60" as="geometry" />
        </mxCell>
        <mxCell id="12TVgymK4eSF7n50bUkY-44" value="数据上报" style="endArrow=classic;html=1;rounded=0;" edge="1" parent="1">
          <mxGeometry width="50" height="50" relative="1" as="geometry">
            <mxPoint x="97" y="400.56962025316466" as="sourcePoint" />
            <mxPoint x="161" y="403" as="targetPoint" />
          </mxGeometry>
        </mxCell>
        <mxCell id="12TVgymK4eSF7n50bUkY-48" value="" style="endArrow=classic;html=1;rounded=0;targetPerimeterSpacing=2;" edge="1" parent="1">
          <mxGeometry width="50" height="50" relative="1" as="geometry">
            <mxPoint x="260" y="299" as="sourcePoint" />
            <mxPoint x="260" y="279" as="targetPoint" />
          </mxGeometry>
        </mxCell>
        <mxCell id="12TVgymK4eSF7n50bUkY-49" value="" style="endArrow=classic;html=1;rounded=0;" edge="1" parent="1">
          <mxGeometry width="50" height="50" relative="1" as="geometry">
            <mxPoint x="665" y="299" as="sourcePoint" />
            <mxPoint x="665" y="279" as="targetPoint" />
          </mxGeometry>
        </mxCell>
        <mxCell id="12TVgymK4eSF7n50bUkY-51" value="业务人员" style="shape=umlActor;verticalLabelPosition=bottom;verticalAlign=top;html=1;outlineConnect=0;" vertex="1" parent="1">
          <mxGeometry x="67" y="127" width="30" height="60" as="geometry" />
        </mxCell>
        <mxCell id="12TVgymK4eSF7n50bUkY-52" value="" style="endArrow=classic;html=1;rounded=0;exitX=0;exitY=0.5;exitDx=0;exitDy=0;" edge="1" parent="1">
          <mxGeometry width="50" height="50" relative="1" as="geometry">
            <mxPoint x="156" y="155" as="sourcePoint" />
            <mxPoint x="95" y="155" as="targetPoint" />
          </mxGeometry>
        </mxCell>
        <mxCell id="12TVgymK4eSF7n50bUkY-132" value="数据查询" style="edgeLabel;html=1;align=center;verticalAlign=middle;resizable=0;points=[];" vertex="1" connectable="0" parent="12TVgymK4eSF7n50bUkY-52">
          <mxGeometry x="-0.4426" relative="1" as="geometry">
            <mxPoint x="-11" as="offset" />
          </mxGeometry>
        </mxCell>
      </root>
    </mxGraphModel>
  </diagram>
</mxfile>
